<?xml version="1.0" encoding="UTF-8" standalone="no"?><!DOCTYPE svg PUBLIC "-//W3C//DTD SVG 1.1//EN" "http://www.w3.org/Graphics/SVG/1.1/DTD/svg11.dtd"><!-- Generated by graphviz version 2.40.1 (20161225.0304)
 --><!-- Title: G Pages: 1 --><svg xmlns="http://www.w3.org/2000/svg" xmlns:xlink="http://www.w3.org/1999/xlink" width="1020pt" height="260pt" viewBox="0.00 0.00 1019.69 260.00">
<g id="graph0" class="graph" transform="scale(1 1) rotate(0) translate(4 256)">
<title>G</title>
<polygon fill="#ffffff" stroke="transparent" points="-4,4 -4,-256 1015.6877,-256 1015.6877,4 -4,4"/>
<!-- Test automation -->
<g id="node1" class="node">
<title>Test automation</title>
<polygon fill="none" stroke="#000000" points="468.8319,-180 362.6423,-180 362.6423,-144 468.8319,-144 468.8319,-180"/>
<text text-anchor="middle" x="415.7371" y="-157.8" font-family="Times,serif" font-size="14.00" fill="#000000">Test automation</text>
</g>
<!-- Continuous integration (CI) -->
<g id="node7" class="node">
<title>Continuous integration (CI)</title>
<polygon fill="none" stroke="#000000" points="375.2707,-108 204.2035,-108 204.2035,-72 375.2707,-72 375.2707,-108"/>
<text text-anchor="middle" x="289.7371" y="-85.8" font-family="Times,serif" font-size="14.00" fill="#000000">Continuous integration (CI)</text>
</g>
<!-- Test automation&#45;&gt;Continuous integration (CI) -->
<g id="edge2" class="edge">
<title>Test automation-&gt;Continuous integration (CI)</title>
<path fill="none" stroke="#000000" d="M383.942,-143.8314C367.6766,-134.5368 347.6985,-123.1208 330.332,-113.1971"/>
<polygon fill="#000000" stroke="#000000" points="331.941,-110.0854 321.522,-108.1628 328.468,-116.1631 331.941,-110.0854"/>
</g>
<!-- Continuous testing -->
<g id="node8" class="node">
<title>Continuous testing</title>
<polygon fill="none" stroke="#000000" points="719.6311,-108 597.8431,-108 597.8431,-72 719.6311,-72 719.6311,-108"/>
<text text-anchor="middle" x="658.7371" y="-85.8" font-family="Times,serif" font-size="14.00" fill="#000000">Continuous testing</text>
</g>
<!-- Test automation&#45;&gt;Continuous testing -->
<g id="edge1" class="edge">
<title>Test automation-&gt;Continuous testing</title>
<path fill="none" stroke="#000000" d="M469.0645,-146.1993C503.9481,-135.8634 549.9167,-122.2431 587.8626,-110.9998"/>
<polygon fill="#000000" stroke="#000000" points="589.2359,-114.2434 597.8295,-108.0467 587.2472,-107.5318 589.2359,-114.2434"/>
</g>
<!-- Deployment automation -->
<g id="node2" class="node">
<title>Deployment automation</title>
<polygon fill="none" stroke="#000000" points="365.4366,-36 214.0376,-36 214.0376,0 365.4366,0 365.4366,-36"/>
<text text-anchor="middle" x="289.7371" y="-13.8" font-family="Times,serif" font-size="14.00" fill="#000000">Deployment automation</text>
</g>
<!-- Trunk&#45;based development -->
<g id="node3" class="node">
<title>Trunk-based development</title>
<polygon fill="none" stroke="#000000" points="282.8009,-180 120.6733,-180 120.6733,-144 282.8009,-144 282.8009,-180"/>
<text text-anchor="middle" x="201.7371" y="-157.8" font-family="Times,serif" font-size="14.00" fill="#000000">Trunk-based development</text>
</g>
<!-- Trunk&#45;based development&#45;&gt;Continuous integration (CI) -->
<g id="edge5" class="edge">
<title>Trunk-based development-&gt;Continuous integration (CI)</title>
<path fill="none" stroke="#000000" d="M223.9432,-143.8314C234.7821,-134.9632 247.9815,-124.1637 259.7049,-114.5718"/>
<polygon fill="#000000" stroke="#000000" points="262.0148,-117.2041 267.5381,-108.1628 257.5821,-111.7864 262.0148,-117.2041"/>
</g>
<!-- Shift left on security -->
<g id="node4" class="node">
<title>Shift left on security</title>
<polygon fill="none" stroke="#000000" points="723.9339,-180 593.5403,-180 593.5403,-144 723.9339,-144 723.9339,-180"/>
<text text-anchor="middle" x="658.7371" y="-157.8" font-family="Times,serif" font-size="14.00" fill="#000000">Shift left on security</text>
</g>
<!-- Shift left on security&#45;&gt;Continuous testing -->
<g id="edge12" class="edge">
<title>Shift left on security-&gt;Continuous testing</title>
<path fill="none" stroke="#000000" d="M658.7371,-143.8314C658.7371,-136.131 658.7371,-126.9743 658.7371,-118.4166"/>
<polygon fill="#000000" stroke="#000000" points="662.2372,-118.4132 658.7371,-108.4133 655.2372,-118.4133 662.2372,-118.4132"/>
</g>
<!-- A loosely coupled architecture -->
<g id="node5" class="node">
<title>A loosely coupled architecture</title>
<polygon fill="none" stroke="#000000" points="580.6704,-108 392.8038,-108 392.8038,-72 580.6704,-72 580.6704,-108"/>
<text text-anchor="middle" x="486.7371" y="-85.8" font-family="Times,serif" font-size="14.00" fill="#000000">A loosely coupled architecture</text>
</g>
<!-- A loosely coupled architecture&#45;&gt;Deployment automation -->
<g id="edge13" class="edge">
<title>A loosely coupled architecture-&gt;Deployment automation</title>
<path fill="none" stroke="#000000" stroke-dasharray="5,2" d="M437.28,-71.9243C410.466,-62.1243 377.1422,-49.945 348.9524,-39.6422"/>
<polygon fill="#000000" stroke="#000000" points="349.8084,-36.2286 339.2146,-36.0831 347.4055,-42.8033 349.8084,-36.2286"/>
</g>
<!-- Code maintainability -->
<g id="node14" class="node">
<title>Code maintainability</title>
<polygon fill="none" stroke="#000000" points="553.557,-36 419.9172,-36 419.9172,0 553.557,0 553.557,-36"/>
<text text-anchor="middle" x="486.7371" y="-13.8" font-family="Times,serif" font-size="14.00" fill="#000000">Code maintainability</text>
</g>
<!-- A loosely coupled architecture&#45;&gt;Code maintainability -->
<g id="edge11" class="edge">
<title>A loosely coupled architecture-&gt;Code maintainability</title>
<path fill="none" stroke="#000000" d="M486.7371,-71.8314C486.7371,-64.131 486.7371,-54.9743 486.7371,-46.4166"/>
<polygon fill="#000000" stroke="#000000" points="490.2372,-46.4132 486.7371,-36.4133 483.2372,-46.4133 490.2372,-46.4132"/>
</g>
<!-- Empowering teams to choose tools -->
<g id="node6" class="node">
<title>Empowering teams to choose tools</title>
<polygon fill="none" stroke="#000000" points="740.6979,-252 528.7763,-252 528.7763,-216 740.6979,-216 740.6979,-252"/>
<text text-anchor="middle" x="634.7371" y="-229.8" font-family="Times,serif" font-size="14.00" fill="#000000">Empowering teams to choose tools</text>
</g>
<!-- Continuous integration (CI)&#45;&gt;Deployment automation -->
<g id="edge10" class="edge">
<title>Continuous integration (CI)-&gt;Deployment automation</title>
<path fill="none" stroke="#000000" d="M289.7371,-71.8314C289.7371,-64.131 289.7371,-54.9743 289.7371,-46.4166"/>
<polygon fill="#000000" stroke="#000000" points="293.2372,-46.4132 289.7371,-36.4133 286.2372,-46.4133 293.2372,-46.4132"/>
</g>
<!-- Version control -->
<g id="node9" class="node">
<title>Version control</title>
<polygon fill="none" stroke="#000000" points="253.7116,-252 149.7626,-252 149.7626,-216 253.7116,-216 253.7116,-252"/>
<text text-anchor="middle" x="201.7371" y="-229.8" font-family="Times,serif" font-size="14.00" fill="#000000">Version control</text>
</g>
<!-- Version control&#45;&gt;Trunk&#45;based development -->
<g id="edge4" class="edge">
<title>Version control-&gt;Trunk-based development</title>
<path fill="none" stroke="#000000" d="M201.7371,-215.8314C201.7371,-208.131 201.7371,-198.9743 201.7371,-190.4166"/>
<polygon fill="#000000" stroke="#000000" points="205.2372,-190.4132 201.7371,-180.4133 198.2372,-190.4133 205.2372,-190.4132"/>
</g>
<!-- Version control&#45;&gt;Continuous integration (CI) -->
<g id="edge3" class="edge">
<title>Version control-&gt;Continuous integration (CI)</title>
<path fill="none" stroke="#000000" d="M251.2658,-215.9463C267.0625,-207.5649 282.7593,-195.8565 291.7371,-180 302.2784,-161.382 300.974,-136.9401 297.4784,-118.2268"/>
<polygon fill="#000000" stroke="#000000" points="300.8492,-117.2555 295.3066,-108.2261 294.0086,-118.7411 300.8492,-117.2555"/>
</g>
<!-- Database change management -->
<g id="node13" class="node">
<title>Database change management</title>
<polygon fill="none" stroke="#000000" points="185.7119,-108 -.2377,-108 -.2377,-72 185.7119,-72 185.7119,-108"/>
<text text-anchor="middle" x="92.7371" y="-85.8" font-family="Times,serif" font-size="14.00" fill="#000000">Database change management</text>
</g>
<!-- Version control&#45;&gt;Database change management -->
<g id="edge7" class="edge">
<title>Version control-&gt;Database change management</title>
<path fill="none" stroke="#000000" d="M155.8618,-215.8165C139.6518,-207.2377 122.736,-195.4321 111.7371,-180 98.9711,-162.0885 94.442,-137.3983 92.9819,-118.4084"/>
<polygon fill="#000000" stroke="#000000" points="96.4681,-118.0544 92.4455,-108.2529 89.4779,-118.4236 96.4681,-118.0544"/>
</g>
<!-- Test data management -->
<g id="node10" class="node">
<title>Test data management</title>
<polygon fill="none" stroke="#000000" points="486.6895,-252 344.7847,-252 344.7847,-216 486.6895,-216 486.6895,-252"/>
<text text-anchor="middle" x="415.7371" y="-229.8" font-family="Times,serif" font-size="14.00" fill="#000000">Test data management</text>
</g>
<!-- Test data management&#45;&gt;Test automation -->
<g id="edge6" class="edge">
<title>Test data management-&gt;Test automation</title>
<path fill="none" stroke="#000000" d="M415.7371,-215.8314C415.7371,-208.131 415.7371,-198.9743 415.7371,-190.4166"/>
<polygon fill="#000000" stroke="#000000" points="419.2372,-190.4132 415.7371,-180.4133 412.2372,-190.4133 419.2372,-190.4132"/>
</g>
<!-- Comprehensive monitoring and observability -->
<g id="node11" class="node">
<title>Comprehensive monitoring and observability</title>
<polygon fill="none" stroke="#000000" points="1011.6383,-180 741.8359,-180 741.8359,-144 1011.6383,-144 1011.6383,-180"/>
<text text-anchor="middle" x="876.7371" y="-157.8" font-family="Times,serif" font-size="14.00" fill="#000000">Comprehensive monitoring and observability</text>
</g>
<!-- Proactive notifications -->
<g id="node12" class="node">
<title>Proactive notifications</title>
<polygon fill="none" stroke="#000000" points="948.0931,-252 805.3811,-252 805.3811,-216 948.0931,-216 948.0931,-252"/>
<text text-anchor="middle" x="876.7371" y="-229.8" font-family="Times,serif" font-size="14.00" fill="#000000">Proactive notifications</text>
</g>
<!-- Proactive notifications&#45;&gt;Comprehensive monitoring and observability -->
<g id="edge9" class="edge">
<title>Proactive notifications-&gt;Comprehensive monitoring and observability</title>
<path fill="none" stroke="#000000" d="M876.7371,-215.8314C876.7371,-208.131 876.7371,-198.9743 876.7371,-190.4166"/>
<polygon fill="#000000" stroke="#000000" points="880.2372,-190.4132 876.7371,-180.4133 873.2372,-190.4133 880.2372,-190.4132"/>
</g>
<!-- Database change management&#45;&gt;Deployment automation -->
<g id="edge8" class="edge">
<title>Database change management-&gt;Deployment automation</title>
<path fill="none" stroke="#000000" d="M142.1942,-71.9243C169.0082,-62.1243 202.332,-49.945 230.5218,-39.6422"/>
<polygon fill="#000000" stroke="#000000" points="232.0687,-42.8033 240.2596,-36.0831 229.6658,-36.2286 232.0687,-42.8033"/>
</g>
</g>
</svg>